{"title":"VAIO - Spark a Trend","uid":7974576,"size":55554048,"categoryP":"video","categoryS":"hd___tv_shows","magnet":"?xt=urn:btih:a301db2ff94d4e1f86063d97426f1bd8c81268c5&amp;dn=VAIO+-+Spark+a+Trend&amp;tr=udp%3A%2F%2Ftracker.openbittorrent.com%3A80&amp;tr=udp%3A%2F%2Fopen.demonii.com%3A1337&amp;tr=udp%3A%2F%2Ftracker.coppersurfer.tk%3A6969&amp;tr=udp%3A%2F%2Fexodus.desync.com%3A6969","seeders":0,"leechers":1,"uploader":"rajapani","files":1,"time":1356953115,"description":"VAIO - Spark a Trend.m2ts\n\n80\nGeneral\nID                                       : 0 (0x0)\nComplete name                            : H:VideosMiscDownloadsVAIO - Spark a Trend (Shopfront).m2ts\nFormat                                   : BDAV\nFormat/Info                              : Blu-ray Video\nFile size                                : 53.0 MiB\nDuration                                 : 28s 481ms\nOverall bit rate mode                    : Variable\nOverall bit rate                         : 15.6 Mbps\nMaximum Overall bit rate                 : 18.0 Mbps\n\nVideo\nID                                       : 4113 (0x1011)\nMenu ID                                  : 1 (0x1)\nFormat                                   : AVC\nFormat/Info                              : Advanced Video Codec\nFormat profile                           : &lt;a class=&quot;__cf_email__&quot; href=&quot;/cdn-cgi/l/email-protection&quot; data-cfemail=&quot;e3ab8a848ba3afd7cdd3&quot;&gt;[email&amp;#160;protected]&lt;/a&gt;&lt;script cf-hash='f9e31' type=&quot;text/javascript&quot;&gt;\n/* &lt;![CDATA[ */!function(){try{var t=&quot;currentScript&quot;in document?document.currentScript:function(){for(var t=document.getElementsByTagName(&quot;script&quot;),e=t.length;e--;)if(t[e].getAttribute(&quot;cf-hash&quot;))return t[e]}();if(t&amp;&amp;t.previousSibling){var e,r,n,i,c=t.previousSibling,a=c.getAttribute(&quot;data-cfemail&quot;);if(a){for(e=&quot;&quot;,r=parseInt(a.substr(0,2),16),n=2;a.length-n;n+=2)i=parseInt(a.substr(n,2),16)^r,e+=String.fromCharCode(i);e=document.createTextNode(e),c.parentNode.replaceChild(e,c)}}}catch(u){}}();/* ]]&gt; */&lt;/script&gt;\nFormat settings, CABAC                   : Yes\nFormat settings, ReFrames                : 2 frames\nCodec ID                                 : 27\nDuration                                 : 27s 80ms\nBit rate mode                            : Variable\nBit rate                                 : 14.8 Mbps\nMaximum bit rate                         : 22.0 Mbps\nWidth                                    : 1 920 pixels\nHeight                                   : 1 080 pixels\nDisplay aspect ratio                     : 16:9\nFrame rate                               : 25.000 fps\nColor space                              : YUV\nChroma subsampling                       : 4:2:0\nBit depth                                : 8 bits\nScan type                                : Interlaced\nScan order                               : Top Field First\nBits/(Pixel*Frame)                       : 0.285\nStream size                              : 47.7 MiB (90%)\n\nAudio\nID                                       : 4352 (0x1100)\nMenu ID                                  : 1 (0x1)\nFormat                                   : AC-3\nFormat/Info                              : Audio Coding 3\nMode extension                           : CM (complete main)\nFormat settings, Endianness              : Big\nCodec ID                                 : 129\nDuration                                 : 27s 40ms\nBit rate mode                            : Constant\nBit rate                                 : 192 Kbps\nChannel(s)                               : 2 channels\nChannel positions                        : Front: L R\nSampling rate                            : 48.0 KHz\nBit depth                                : 16 bits\nCompression mode                         : Lossy\nDelay relative to video                  : -40ms\nStream size                              : 634 KiB (1%)\n\n","torrent":{"xt":"urn:btih:a301db2ff94d4e1f86063d97426f1bd8c81268c5","amp;dn":"VAIO+-+Spark+a+Trend","amp;tr":["udp%3A%2F%2Ftracker.openbittorrent.com%3A80","udp%3A%2F%2Fopen.demonii.com%3A1337","udp%3A%2F%2Ftracker.coppersurfer.tk%3A6969","udp%3A%2F%2Fexodus.desync.com%3A6969"],"infoHash":"a301db2ff94d4e1f86063d97426f1bd8c81268c5","infoHashBuffer":{"type":"Buffer","data":[163,1,219,47,249,77,78,31,134,6,61,151,66,111,27,216,200,18,104,197]},"announce":[],"urlList":[]}}